<svg id="Layer_1" height="512" viewBox="0 0 512 512" width="512" xmlns="http://www.w3.org/2000/svg" data-name="Layer 1"><path d="m256 41c-118.741 0-215 96.259-215 215s96.259 215 215 215 215-96.259 215-215-96.259-215-215-215zm103.389 214.553c-10.95 24.047-33.437 33.034-69.753 36.759 11.772 7.4 15.154 16.691 15.154 41.832s-.347 28.518-.262 34.293c.129 9.49 14.046 14.035 13.519 17.091-.529 3.04-11.635 2.561-16.837.735-14.734-5.117-13.259-17.362-13.259-17.362l-.487-33.622s1.008-18.083-5.689-18.083v55.019c0 11.951 8.38 15.577 8.38 19.994 0 7.608-15.295-.719-20.016-5.458-7.184-7.209-6.361-22.5-6.19-34.59.168-11.681-.106-37.221-.106-37.221l-4.874.1s2 55.794-2.569 65.957c-5.915 13.055-23.754 17.555-23.754 11.6 0-4 4.39-2.729 6.825-11.69 2.069-7.628 1.362-64.5 1.362-64.5s-5.713 3.378-5.713 14.027c0 4.873-.136 32.735-.136 41.015 0 10.426-14.817 16.372-21.94 16.372-3.6 0-8.092-.18-8.092-2.088 0-4.825 13.553-7.649 13.553-17.691 0-8.7-.184-31.079-.184-31.079a107.858 107.858 0 0 1 -16.578 1.178c-24.571 0-32.34-15.666-36.042-24.426-4.806-11.419-11.04-16.785-17.673-21.069-4.069-2.638-5-5.744-.3-6.626 21.746-4.1 27.305 24.638 41.831 29.225 10.36 3.264 23.693 1.846 30.321-2.433.879-8.771 7.212-16.371 12.485-20.373-36.943-3.538-58.839-16.355-70.2-36.966-.145 0-5.348-11.2-4.914-11.2-3.551-10.457-5.128-22.435-5.137-35.835 0-23.755 7.412-32.714 17.354-45.383-7.6-27.088 2.73-45.6 2.73-45.6s15.992-3.315 46.213 18.315c16.38-7.014 60.06-7.589 80.711-1.556 12.682-8.37 35.879-20.256 45.24-16.93 2.534 4.08 7.994 15.953 3.319 42.074 3.172 5.724 19.685 17.92 19.745 52.42-.248 12.717-1.587 23.458-4.042 32.538.472.005-3.144 11.255-3.995 11.237z"/></svg>