<svg id="Layer_1" height="512" viewBox="0 0 512 512" width="512" xmlns="http://www.w3.org/2000/svg" data-name="Layer 1"><path d="m256 41c-118.741 0-215 96.259-215 215s96.259 215 215 215 215-96.259 215-215-96.259-215-215-215zm102.307 163.358c.1 2.225.134 4.476.134 6.726 0 68.656-53.074 147.813-150.159 147.813a151.238 151.238 0 0 1 -80.916-23.335 109.7 109.7 0 0 0 12.594.724 107.008 107.008 0 0 0 65.559-22.238 52.764 52.764 0 0 1 -49.305-36.08 53.816 53.816 0 0 0 23.848-.89c-24.15-4.782-42.346-25.785-42.346-50.95v-.652a53.278 53.278 0 0 0 23.907 6.5 51.746 51.746 0 0 1 -23.488-43.234 51.11 51.11 0 0 1 7.151-26.123 150.654 150.654 0 0 0 108.784 54.281 52.047 52.047 0 0 1 -1.357-11.837c0-28.695 23.631-51.956 52.772-51.956a53.054 53.054 0 0 1 38.52 16.411 106.681 106.681 0 0 0 33.528-12.618 52.236 52.236 0 0 1 -23.212 28.743 106.431 106.431 0 0 0 30.313-8.178 106.172 106.172 0 0 1 -26.327 26.893z"/></svg>